<svg xmlns="http://www.w3.org/2000/svg" viewBox="0 0 512 512">
  <defs>
    <linearGradient id="bg" x1="0%" y1="0%" x2="0%" y2="100%">
      <stop offset="0%" stop-color="#3490F3"/>
      <stop offset="100%" stop-color="#1250A4"/>
    </linearGradient>
  </defs>

  <circle cx="256" cy="256" r="240" fill="url(#bg)" />
  
  <circle cx="256" cy="256" r="220" fill="none" stroke="#FFFFFF" stroke-width="4" opacity="0.6" />

  <g stroke="#1250A4" stroke-width="9" stroke-linejoin="round" stroke-linecap="round">
    
    <path d="M 205 350 L 125 180 Q 110 145 145 145 L 220 350 Z" fill="#FFFFFF" />
    <path d="M 307 350 L 387 180 Q 402 145 367 145 L 292 350 Z" fill="#FFFFFF" />
    
    <path d="M 220 350 L 170 135 Q 160 105 200 105 L 250 350 Z" fill="#FFFFFF" />
    <path d="M 292 350 L 342 135 Q 352 105 312 105 L 262 350 Z" fill="#FFFFFF" />
    
    <path d="M 240 350 L 230 115 Q 256 90 282 115 L 272 350 Z" fill="#FFFFFF" />
  </g>

  <path d="M 140 220 Q 256 265 372 220" fill="none" stroke="#1250A4" stroke-width="9" stroke-linecap="round"/>
  <path d="M 170 285 Q 256 320 342 285" fill="none" stroke="#1250A4" stroke-width="9" stroke-linecap="round"/>

  <path d="M 200 350 L 312 350 L 304 385 L 208 385 Z" fill="#FFFFFF" stroke="#1250A4" stroke-width="9" stroke-linejoin="round"/>
  <path d="M 205 367 L 307 367" fill="none" stroke="#1250A4" stroke-width="7" />

  <path d="M 208 385 C 208 450 304 450 304 385 Z" fill="#FFFFFF" stroke="#1250A4" stroke-width="9" />
</svg>
